<mxfile host="app.diagrams.net" agent="Mozilla/5.0 (Windows NT 10.0; Win64; x64) AppleWebKit/537.36 (KHTML, like Gecko) Chrome/138.0.0.0 Safari/537.36" version="28.0.7">
  <diagram name="Page-1" id="gamRS6MLA4fs2B-uqD5Q">
    <mxGraphModel grid="1" page="1" gridSize="10" guides="1" tooltips="1" connect="1" arrows="1" fold="1" pageScale="1" pageWidth="850" pageHeight="1100" math="0" shadow="0">
      <root>
        <mxCell id="0" />
        <mxCell id="1" parent="0" />
        <mxCell id="sVo8eWBov2D_V9g_eI1e-4" style="edgeStyle=orthogonalEdgeStyle;rounded=0;orthogonalLoop=1;jettySize=auto;html=1;exitX=0.5;exitY=1;exitDx=0;exitDy=0;entryX=0.5;entryY=0;entryDx=0;entryDy=0;" edge="1" parent="1" source="sVo8eWBov2D_V9g_eI1e-1" target="sVo8eWBov2D_V9g_eI1e-2">
          <mxGeometry relative="1" as="geometry" />
        </mxCell>
        <mxCell id="sVo8eWBov2D_V9g_eI1e-1" value="Inicio" style="rounded=1;whiteSpace=wrap;html=1;" vertex="1" parent="1">
          <mxGeometry x="315" y="91" width="80" height="30" as="geometry" />
        </mxCell>
        <mxCell id="sVo8eWBov2D_V9g_eI1e-5" style="edgeStyle=orthogonalEdgeStyle;rounded=0;orthogonalLoop=1;jettySize=auto;html=1;exitX=0.5;exitY=1;exitDx=0;exitDy=0;entryX=0.5;entryY=0;entryDx=0;entryDy=0;" edge="1" parent="1" source="sVo8eWBov2D_V9g_eI1e-2" target="sVo8eWBov2D_V9g_eI1e-3">
          <mxGeometry relative="1" as="geometry" />
        </mxCell>
        <mxCell id="sVo8eWBov2D_V9g_eI1e-2" value="Inicializar variables:&lt;div&gt;maximo, minimo, suma y cuenta&lt;/div&gt;" style="rounded=0;whiteSpace=wrap;html=1;" vertex="1" parent="1">
          <mxGeometry x="250" y="142" width="210" height="40" as="geometry" />
        </mxCell>
        <mxCell id="IjzSVML1T2hhFa-6fPjj-5" style="edgeStyle=orthogonalEdgeStyle;rounded=0;orthogonalLoop=1;jettySize=auto;html=1;exitX=0.5;exitY=1;exitDx=0;exitDy=0;entryX=0.5;entryY=0;entryDx=0;entryDy=0;" edge="1" parent="1" source="sVo8eWBov2D_V9g_eI1e-3" target="IjzSVML1T2hhFa-6fPjj-1">
          <mxGeometry relative="1" as="geometry" />
        </mxCell>
        <mxCell id="sVo8eWBov2D_V9g_eI1e-3" value="Leer número" style="rounded=0;whiteSpace=wrap;html=1;" vertex="1" parent="1">
          <mxGeometry x="295" y="231" width="120" height="40" as="geometry" />
        </mxCell>
        <mxCell id="sVo8eWBov2D_V9g_eI1e-14" value="&lt;font style=&quot;font-size: 20px;&quot;&gt;&lt;b&gt;Media, máximo y mínimo de un grupo de números&lt;/b&gt;&lt;/font&gt;" style="text;html=1;align=center;verticalAlign=middle;whiteSpace=wrap;rounded=0;" vertex="1" parent="1">
          <mxGeometry x="40" y="20" width="660" height="30" as="geometry" />
        </mxCell>
        <mxCell id="IjzSVML1T2hhFa-6fPjj-6" style="edgeStyle=orthogonalEdgeStyle;rounded=0;orthogonalLoop=1;jettySize=auto;html=1;exitX=0.5;exitY=1;exitDx=0;exitDy=0;entryX=0.5;entryY=0;entryDx=0;entryDy=0;" edge="1" parent="1" source="IjzSVML1T2hhFa-6fPjj-1" target="IjzSVML1T2hhFa-6fPjj-3">
          <mxGeometry relative="1" as="geometry" />
        </mxCell>
        <mxCell id="IjzSVML1T2hhFa-6fPjj-7" style="edgeStyle=orthogonalEdgeStyle;rounded=0;orthogonalLoop=1;jettySize=auto;html=1;exitX=0.5;exitY=1;exitDx=0;exitDy=0;entryX=0.5;entryY=0;entryDx=0;entryDy=0;" edge="1" parent="1" source="IjzSVML1T2hhFa-6fPjj-1" target="IjzSVML1T2hhFa-6fPjj-4">
          <mxGeometry relative="1" as="geometry" />
        </mxCell>
        <mxCell id="IjzSVML1T2hhFa-6fPjj-8" value="No" style="edgeLabel;html=1;align=center;verticalAlign=middle;resizable=0;points=[];" connectable="0" vertex="1" parent="IjzSVML1T2hhFa-6fPjj-7">
          <mxGeometry x="-0.906" y="1" relative="1" as="geometry">
            <mxPoint as="offset" />
          </mxGeometry>
        </mxCell>
        <mxCell id="IjzSVML1T2hhFa-6fPjj-33" style="edgeStyle=orthogonalEdgeStyle;rounded=0;orthogonalLoop=1;jettySize=auto;html=1;exitX=1;exitY=0.5;exitDx=0;exitDy=0;entryX=0.5;entryY=0;entryDx=0;entryDy=0;" edge="1" parent="1" source="IjzSVML1T2hhFa-6fPjj-1" target="IjzSVML1T2hhFa-6fPjj-31">
          <mxGeometry relative="1" as="geometry" />
        </mxCell>
        <mxCell id="IjzSVML1T2hhFa-6fPjj-34" value="Si" style="edgeLabel;html=1;align=center;verticalAlign=middle;resizable=0;points=[];" connectable="0" vertex="1" parent="IjzSVML1T2hhFa-6fPjj-33">
          <mxGeometry x="-0.8947" relative="1" as="geometry">
            <mxPoint as="offset" />
          </mxGeometry>
        </mxCell>
        <mxCell id="IjzSVML1T2hhFa-6fPjj-1" value="¿numero=0?" style="rhombus;whiteSpace=wrap;html=1;" vertex="1" parent="1">
          <mxGeometry x="281" y="310" width="150" height="80" as="geometry" />
        </mxCell>
        <mxCell id="IjzSVML1T2hhFa-6fPjj-12" style="edgeStyle=orthogonalEdgeStyle;rounded=0;orthogonalLoop=1;jettySize=auto;html=1;exitX=0.5;exitY=1;exitDx=0;exitDy=0;entryX=0.5;entryY=0;entryDx=0;entryDy=0;" edge="1" parent="1" source="IjzSVML1T2hhFa-6fPjj-3" target="IjzSVML1T2hhFa-6fPjj-9">
          <mxGeometry relative="1" as="geometry" />
        </mxCell>
        <mxCell id="IjzSVML1T2hhFa-6fPjj-19" value="Si" style="edgeLabel;html=1;align=center;verticalAlign=middle;resizable=0;points=[];" connectable="0" vertex="1" parent="IjzSVML1T2hhFa-6fPjj-12">
          <mxGeometry x="-0.3333" relative="1" as="geometry">
            <mxPoint as="offset" />
          </mxGeometry>
        </mxCell>
        <mxCell id="IjzSVML1T2hhFa-6fPjj-41" style="edgeStyle=orthogonalEdgeStyle;rounded=0;orthogonalLoop=1;jettySize=auto;html=1;exitX=1;exitY=0.5;exitDx=0;exitDy=0;entryX=0.5;entryY=0;entryDx=0;entryDy=0;" edge="1" parent="1" source="IjzSVML1T2hhFa-6fPjj-3" target="IjzSVML1T2hhFa-6fPjj-14">
          <mxGeometry relative="1" as="geometry" />
        </mxCell>
        <mxCell id="IjzSVML1T2hhFa-6fPjj-42" value="No" style="edgeLabel;html=1;align=center;verticalAlign=middle;resizable=0;points=[];" connectable="0" vertex="1" parent="IjzSVML1T2hhFa-6fPjj-41">
          <mxGeometry x="-0.8472" y="-1" relative="1" as="geometry">
            <mxPoint as="offset" />
          </mxGeometry>
        </mxCell>
        <mxCell id="IjzSVML1T2hhFa-6fPjj-3" value="¿numero&amp;gt;maximo?" style="rhombus;whiteSpace=wrap;html=1;" vertex="1" parent="1">
          <mxGeometry x="71" y="450" width="140" height="90" as="geometry" />
        </mxCell>
        <mxCell id="IjzSVML1T2hhFa-6fPjj-11" style="edgeStyle=orthogonalEdgeStyle;rounded=0;orthogonalLoop=1;jettySize=auto;html=1;exitX=0.5;exitY=1;exitDx=0;exitDy=0;entryX=0.5;entryY=0;entryDx=0;entryDy=0;" edge="1" parent="1" source="IjzSVML1T2hhFa-6fPjj-4" target="IjzSVML1T2hhFa-6fPjj-10">
          <mxGeometry relative="1" as="geometry" />
        </mxCell>
        <mxCell id="IjzSVML1T2hhFa-6fPjj-18" value="Si" style="edgeLabel;html=1;align=center;verticalAlign=middle;resizable=0;points=[];" connectable="0" vertex="1" parent="IjzSVML1T2hhFa-6fPjj-11">
          <mxGeometry x="-0.4545" relative="1" as="geometry">
            <mxPoint as="offset" />
          </mxGeometry>
        </mxCell>
        <mxCell id="IjzSVML1T2hhFa-6fPjj-43" style="edgeStyle=orthogonalEdgeStyle;rounded=0;orthogonalLoop=1;jettySize=auto;html=1;exitX=0;exitY=0.5;exitDx=0;exitDy=0;entryX=0.5;entryY=0;entryDx=0;entryDy=0;" edge="1" parent="1" source="IjzSVML1T2hhFa-6fPjj-4" target="IjzSVML1T2hhFa-6fPjj-14">
          <mxGeometry relative="1" as="geometry">
            <mxPoint x="390" y="680" as="targetPoint" />
          </mxGeometry>
        </mxCell>
        <mxCell id="IjzSVML1T2hhFa-6fPjj-44" value="No" style="edgeLabel;html=1;align=center;verticalAlign=middle;resizable=0;points=[];" connectable="0" vertex="1" parent="IjzSVML1T2hhFa-6fPjj-43">
          <mxGeometry x="-0.8627" y="1" relative="1" as="geometry">
            <mxPoint as="offset" />
          </mxGeometry>
        </mxCell>
        <mxCell id="IjzSVML1T2hhFa-6fPjj-4" value="¿numero&amp;lt;minimo?" style="rhombus;whiteSpace=wrap;html=1;" vertex="1" parent="1">
          <mxGeometry x="552" y="450" width="140" height="90" as="geometry" />
        </mxCell>
        <mxCell id="IjzSVML1T2hhFa-6fPjj-40" style="edgeStyle=orthogonalEdgeStyle;rounded=0;orthogonalLoop=1;jettySize=auto;html=1;exitX=0.5;exitY=1;exitDx=0;exitDy=0;entryX=0.5;entryY=0;entryDx=0;entryDy=0;" edge="1" parent="1" source="IjzSVML1T2hhFa-6fPjj-9" target="IjzSVML1T2hhFa-6fPjj-14">
          <mxGeometry relative="1" as="geometry">
            <mxPoint x="390" y="680" as="targetPoint" />
          </mxGeometry>
        </mxCell>
        <mxCell id="IjzSVML1T2hhFa-6fPjj-9" value="maximo = numero" style="rounded=0;whiteSpace=wrap;html=1;" vertex="1" parent="1">
          <mxGeometry x="81" y="573" width="120" height="40" as="geometry" />
        </mxCell>
        <mxCell id="IjzSVML1T2hhFa-6fPjj-39" style="edgeStyle=orthogonalEdgeStyle;rounded=0;orthogonalLoop=1;jettySize=auto;html=1;exitX=0.5;exitY=1;exitDx=0;exitDy=0;entryX=0.5;entryY=0;entryDx=0;entryDy=0;" edge="1" parent="1" source="IjzSVML1T2hhFa-6fPjj-10" target="IjzSVML1T2hhFa-6fPjj-14">
          <mxGeometry relative="1" as="geometry" />
        </mxCell>
        <mxCell id="IjzSVML1T2hhFa-6fPjj-10" value="minimo= numero" style="rounded=0;whiteSpace=wrap;html=1;" vertex="1" parent="1">
          <mxGeometry x="562" y="573" width="120" height="40" as="geometry" />
        </mxCell>
        <mxCell id="IjzSVML1T2hhFa-6fPjj-13" value="Fin" style="rounded=1;whiteSpace=wrap;html=1;" vertex="1" parent="1">
          <mxGeometry x="721" y="763" width="80" height="30" as="geometry" />
        </mxCell>
        <mxCell id="IjzSVML1T2hhFa-6fPjj-17" style="edgeStyle=orthogonalEdgeStyle;rounded=0;orthogonalLoop=1;jettySize=auto;html=1;exitX=0.5;exitY=1;exitDx=0;exitDy=0;entryX=0.5;entryY=0;entryDx=0;entryDy=0;" edge="1" parent="1" source="IjzSVML1T2hhFa-6fPjj-14" target="IjzSVML1T2hhFa-6fPjj-15">
          <mxGeometry relative="1" as="geometry" />
        </mxCell>
        <mxCell id="IjzSVML1T2hhFa-6fPjj-14" value="suma = suma + numero" style="rounded=0;whiteSpace=wrap;html=1;" vertex="1" parent="1">
          <mxGeometry x="272" y="680" width="179" height="43" as="geometry" />
        </mxCell>
        <mxCell id="IjzSVML1T2hhFa-6fPjj-45" style="edgeStyle=orthogonalEdgeStyle;rounded=0;orthogonalLoop=1;jettySize=auto;html=1;exitX=0.5;exitY=1;exitDx=0;exitDy=0;" edge="1" parent="1" source="IjzSVML1T2hhFa-6fPjj-15">
          <mxGeometry relative="1" as="geometry">
            <mxPoint x="360" y="200" as="targetPoint" />
            <Array as="points">
              <mxPoint x="390" y="820" />
              <mxPoint x="50" y="820" />
              <mxPoint x="50" y="200" />
            </Array>
          </mxGeometry>
        </mxCell>
        <mxCell id="IjzSVML1T2hhFa-6fPjj-15" value="cuenta = cuenta +1" style="rounded=0;whiteSpace=wrap;html=1;" vertex="1" parent="1">
          <mxGeometry x="272" y="750" width="179" height="40" as="geometry" />
        </mxCell>
        <mxCell id="IjzSVML1T2hhFa-6fPjj-32" style="edgeStyle=orthogonalEdgeStyle;rounded=0;orthogonalLoop=1;jettySize=auto;html=1;exitX=0.5;exitY=1;exitDx=0;exitDy=0;entryX=0.5;entryY=0;entryDx=0;entryDy=0;" edge="1" parent="1" source="IjzSVML1T2hhFa-6fPjj-31" target="IjzSVML1T2hhFa-6fPjj-13">
          <mxGeometry relative="1" as="geometry" />
        </mxCell>
        <mxCell id="IjzSVML1T2hhFa-6fPjj-31" value="Escribir en pantalla:&lt;div&gt;media, maximo, minimo&lt;/div&gt;" style="rounded=0;whiteSpace=wrap;html=1;" vertex="1" parent="1">
          <mxGeometry x="692" y="400" width="138" height="40" as="geometry" />
        </mxCell>
      </root>
    </mxGraphModel>
  </diagram>
</mxfile>
